solid OpenSCAD_Model
  facet normal -1 0 0
    outer loop
      vertex 1.1692 1.1692 0.0100009
      vertex 1.1692 1.22 0.314799
      vertex 1.1692 1.22 0.0100009
    endloop
  endfacet
  facet normal -1 -0 0
    outer loop
      vertex 1.1692 1.22 0.314799
      vertex 1.1692 1.1692 0.0100009
      vertex 1.1692 1.1692 0.314799
    endloop
  endfacet
  facet normal -0 0 1
    outer loop
      vertex 1.1692 1.22 0.314799
      vertex 1.22 1.1692 0.314799
      vertex 1.22 1.22 0.314799
    endloop
  endfacet
  facet normal 0 0 1
    outer loop
      vertex 1.22 1.1692 0.314799
      vertex 1.1692 1.22 0.314799
      vertex 1.1692 1.1692 0.314799
    endloop
  endfacet
  facet normal 1 -0 0
    outer loop
      vertex 1.22 1.1692 0.314799
      vertex 1.22 1.22 0.0100009
      vertex 1.22 1.22 0.314799
    endloop
  endfacet
  facet normal 1 0 0
    outer loop
      vertex 1.22 1.22 0.0100009
      vertex 1.22 1.1692 0.314799
      vertex 1.22 1.1692 0.0100009
    endloop
  endfacet
  facet normal 0 0 -1
    outer loop
      vertex 1.1692 1.1692 0.0100009
      vertex 1.22 1.22 0.0100009
      vertex 1.22 1.1692 0.0100009
    endloop
  endfacet
  facet normal -0 0 -1
    outer loop
      vertex 1.22 1.22 0.0100009
      vertex 1.1692 1.1692 0.0100009
      vertex 1.1692 1.22 0.0100009
    endloop
  endfacet
  facet normal 0 -1 0
    outer loop
      vertex 1.1692 1.1692 0.0100009
      vertex 1.22 1.1692 0.314799
      vertex 1.1692 1.1692 0.314799
    endloop
  endfacet
  facet normal 0 -1 -0
    outer loop
      vertex 1.22 1.1692 0.314799
      vertex 1.1692 1.1692 0.0100009
      vertex 1.22 1.1692 0.0100009
    endloop
  endfacet
  facet normal 0 1 -0
    outer loop
      vertex 1.22 1.22 0.0100009
      vertex 1.1692 1.22 0.314799
      vertex 1.22 1.22 0.314799
    endloop
  endfacet
  facet normal 0 1 0
    outer loop
      vertex 1.1692 1.22 0.314799
      vertex 1.22 1.22 0.0100009
      vertex 1.1692 1.22 0.0100009
    endloop
  endfacet
  facet normal 0 1 -0
    outer loop
      vertex -1.1692 1.22 0.0100009
      vertex -1.22 1.22 0.314799
      vertex -1.1692 1.22 0.314799
    endloop
  endfacet
  facet normal 0 1 0
    outer loop
      vertex -1.22 1.22 0.314799
      vertex -1.1692 1.22 0.0100009
      vertex -1.22 1.22 0.0100009
    endloop
  endfacet
  facet normal -0 0 1
    outer loop
      vertex -1.22 1.22 0.314799
      vertex -1.1692 1.1692 0.314799
      vertex -1.1692 1.22 0.314799
    endloop
  endfacet
  facet normal 0 0 1
    outer loop
      vertex -1.1692 1.1692 0.314799
      vertex -1.22 1.22 0.314799
      vertex -1.22 1.1692 0.314799
    endloop
  endfacet
  facet normal -1 0 0
    outer loop
      vertex -1.22 1.1692 0.0100009
      vertex -1.22 1.22 0.314799
      vertex -1.22 1.22 0.0100009
    endloop
  endfacet
  facet normal -1 -0 0
    outer loop
      vertex -1.22 1.22 0.314799
      vertex -1.22 1.1692 0.0100009
      vertex -1.22 1.1692 0.314799
    endloop
  endfacet
  facet normal 0 -1 0
    outer loop
      vertex -1.22 1.1692 0.0100009
      vertex -1.1692 1.1692 0.314799
      vertex -1.22 1.1692 0.314799
    endloop
  endfacet
  facet normal 0 -1 -0
    outer loop
      vertex -1.1692 1.1692 0.314799
      vertex -1.22 1.1692 0.0100009
      vertex -1.1692 1.1692 0.0100009
    endloop
  endfacet
  facet normal 0 0 -1
    outer loop
      vertex -1.22 1.1692 0.0100009
      vertex -1.1692 1.22 0.0100009
      vertex -1.1692 1.1692 0.0100009
    endloop
  endfacet
  facet normal -0 0 -1
    outer loop
      vertex -1.1692 1.22 0.0100009
      vertex -1.22 1.1692 0.0100009
      vertex -1.22 1.22 0.0100009
    endloop
  endfacet
  facet normal 1 -0 0
    outer loop
      vertex -1.1692 1.1692 0.314799
      vertex -1.1692 1.22 0.0100009
      vertex -1.1692 1.22 0.314799
    endloop
  endfacet
  facet normal 1 0 0
    outer loop
      vertex -1.1692 1.22 0.0100009
      vertex -1.1692 1.1692 0.314799
      vertex -1.1692 1.1692 0.0100009
    endloop
  endfacet
  facet normal -0 0 1
    outer loop
      vertex -1.22 -1.1692 0.314799
      vertex -1.1692 -1.22 0.314799
      vertex -1.1692 -1.1692 0.314799
    endloop
  endfacet
  facet normal 0 0 1
    outer loop
      vertex -1.1692 -1.22 0.314799
      vertex -1.22 -1.1692 0.314799
      vertex -1.22 -1.22 0.314799
    endloop
  endfacet
  facet normal -1 0 0
    outer loop
      vertex -1.22 -1.22 0.0100009
      vertex -1.22 -1.1692 0.314799
      vertex -1.22 -1.1692 0.0100009
    endloop
  endfacet
  facet normal -1 -0 0
    outer loop
      vertex -1.22 -1.1692 0.314799
      vertex -1.22 -1.22 0.0100009
      vertex -1.22 -1.22 0.314799
    endloop
  endfacet
  facet normal 1 -0 0
    outer loop
      vertex -1.1692 -1.22 0.314799
      vertex -1.1692 -1.1692 0.0100009
      vertex -1.1692 -1.1692 0.314799
    endloop
  endfacet
  facet normal 1 0 0
    outer loop
      vertex -1.1692 -1.1692 0.0100009
      vertex -1.1692 -1.22 0.314799
      vertex -1.1692 -1.22 0.0100009
    endloop
  endfacet
  facet normal 0 1 -0
    outer loop
      vertex -1.1692 -1.1692 0.0100009
      vertex -1.22 -1.1692 0.314799
      vertex -1.1692 -1.1692 0.314799
    endloop
  endfacet
  facet normal 0 1 0
    outer loop
      vertex -1.22 -1.1692 0.314799
      vertex -1.1692 -1.1692 0.0100009
      vertex -1.22 -1.1692 0.0100009
    endloop
  endfacet
  facet normal 0 0 -1
    outer loop
      vertex -1.22 -1.22 0.0100009
      vertex -1.1692 -1.1692 0.0100009
      vertex -1.1692 -1.22 0.0100009
    endloop
  endfacet
  facet normal -0 0 -1
    outer loop
      vertex -1.1692 -1.1692 0.0100009
      vertex -1.22 -1.22 0.0100009
      vertex -1.22 -1.1692 0.0100009
    endloop
  endfacet
  facet normal 0 -1 0
    outer loop
      vertex -1.22 -1.22 0.0100009
      vertex -1.1692 -1.22 0.314799
      vertex -1.22 -1.22 0.314799
    endloop
  endfacet
  facet normal 0 -1 -0
    outer loop
      vertex -1.1692 -1.22 0.314799
      vertex -1.22 -1.22 0.0100009
      vertex -1.1692 -1.22 0.0100009
    endloop
  endfacet
  facet normal -0 0 1
    outer loop
      vertex 1.1692 -1.1692 0.314799
      vertex 1.22 -1.22 0.314799
      vertex 1.22 -1.1692 0.314799
    endloop
  endfacet
  facet normal 0 0 1
    outer loop
      vertex 1.22 -1.22 0.314799
      vertex 1.1692 -1.1692 0.314799
      vertex 1.1692 -1.22 0.314799
    endloop
  endfacet
  facet normal 0 1 -0
    outer loop
      vertex 1.22 -1.1692 0.0100009
      vertex 1.1692 -1.1692 0.314799
      vertex 1.22 -1.1692 0.314799
    endloop
  endfacet
  facet normal 0 1 0
    outer loop
      vertex 1.1692 -1.1692 0.314799
      vertex 1.22 -1.1692 0.0100009
      vertex 1.1692 -1.1692 0.0100009
    endloop
  endfacet
  facet normal 0 -1 0
    outer loop
      vertex 1.1692 -1.22 0.0100009
      vertex 1.22 -1.22 0.314799
      vertex 1.1692 -1.22 0.314799
    endloop
  endfacet
  facet normal 0 -1 -0
    outer loop
      vertex 1.22 -1.22 0.314799
      vertex 1.1692 -1.22 0.0100009
      vertex 1.22 -1.22 0.0100009
    endloop
  endfacet
  facet normal -1 0 0
    outer loop
      vertex 1.1692 -1.22 0.0100009
      vertex 1.1692 -1.1692 0.314799
      vertex 1.1692 -1.1692 0.0100009
    endloop
  endfacet
  facet normal -1 -0 0
    outer loop
      vertex 1.1692 -1.1692 0.314799
      vertex 1.1692 -1.22 0.0100009
      vertex 1.1692 -1.22 0.314799
    endloop
  endfacet
  facet normal 0 0 -1
    outer loop
      vertex 1.1692 -1.22 0.0100009
      vertex 1.22 -1.1692 0.0100009
      vertex 1.22 -1.22 0.0100009
    endloop
  endfacet
  facet normal -0 0 -1
    outer loop
      vertex 1.22 -1.1692 0.0100009
      vertex 1.1692 -1.22 0.0100009
      vertex 1.1692 -1.1692 0.0100009
    endloop
  endfacet
  facet normal 1 -0 0
    outer loop
      vertex 1.22 -1.22 0.314799
      vertex 1.22 -1.1692 0.0100009
      vertex 1.22 -1.1692 0.314799
    endloop
  endfacet
  facet normal 1 0 0
    outer loop
      vertex 1.22 -1.1692 0.0100009
      vertex 1.22 -1.22 0.314799
      vertex 1.22 -1.22 0.0100009
    endloop
  endfacet
endsolid OpenSCAD_Model
