solid OpenSCAD_Model
  facet normal 0 0 1
    outer loop
      vertex -1.38778e-17 0.162635 0.31
      vertex 1.38778e-17 -0.162635 0.31
      vertex 0.162635 1.38778e-17 0.31
    endloop
  endfacet
  facet normal 0 0 1
    outer loop
      vertex 1.38778e-17 -0.162635 0.31
      vertex -1.38778e-17 0.162635 0.31
      vertex -0.162635 -1.38778e-17 0.31
    endloop
  endfacet
  facet normal 0 0 -1
    outer loop
      vertex 1.38778e-17 -0.162635 0.01
      vertex -1.38778e-17 0.162635 0.01
      vertex 0.162635 1.38778e-17 0.01
    endloop
  endfacet
  facet normal 0 -0 -1
    outer loop
      vertex -1.38778e-17 0.162635 0.01
      vertex 1.38778e-17 -0.162635 0.01
      vertex -0.162635 -1.38778e-17 0.01
    endloop
  endfacet
  facet normal 0.707107 -0.707107 0
    outer loop
      vertex 1.38778e-17 -0.162635 0.31
      vertex 0.162635 1.38778e-17 0.01
      vertex 0.162635 1.38778e-17 0.31
    endloop
  endfacet
  facet normal 0.707107 -0.707107 0
    outer loop
      vertex 0.162635 1.38778e-17 0.01
      vertex 1.38778e-17 -0.162635 0.31
      vertex 1.38778e-17 -0.162635 0.01
    endloop
  endfacet
  facet normal 0.707107 0.707107 0
    outer loop
      vertex 0.162635 1.38778e-17 0.31
      vertex -1.38778e-17 0.162635 0.01
      vertex -1.38778e-17 0.162635 0.31
    endloop
  endfacet
  facet normal 0.707107 0.707107 0
    outer loop
      vertex -1.38778e-17 0.162635 0.01
      vertex 0.162635 1.38778e-17 0.31
      vertex 0.162635 1.38778e-17 0.01
    endloop
  endfacet
  facet normal -0.707107 0.707107 0
    outer loop
      vertex -0.162635 -1.38778e-17 0.01
      vertex -1.38778e-17 0.162635 0.31
      vertex -1.38778e-17 0.162635 0.01
    endloop
  endfacet
  facet normal -0.707107 0.707107 0
    outer loop
      vertex -1.38778e-17 0.162635 0.31
      vertex -0.162635 -1.38778e-17 0.01
      vertex -0.162635 -1.38778e-17 0.31
    endloop
  endfacet
  facet normal -0.707107 -0.707107 0
    outer loop
      vertex 1.38778e-17 -0.162635 0.01
      vertex -0.162635 -1.38778e-17 0.31
      vertex -0.162635 -1.38778e-17 0.01
    endloop
  endfacet
  facet normal -0.707107 -0.707107 0
    outer loop
      vertex -0.162635 -1.38778e-17 0.31
      vertex 1.38778e-17 -0.162635 0.01
      vertex 1.38778e-17 -0.162635 0.31
    endloop
  endfacet
endsolid OpenSCAD_Model
